<svg enable-background="new 0 0 128 128" viewBox="0 0 128 128" xmlns="http://www.w3.org/2000/svg" xmlns:xlink="http://www.w3.org/1999/xlink"><linearGradient id="a" gradientUnits="userSpaceOnUse" x1="64" x2="64" y1="4.1455" y2="122.8656"><stop offset="0" stop-color="#757575"/><stop offset=".5148" stop-color="#504f4f"/></linearGradient><path d="m62.6 82.4c.8-.8 2-.8 2.8 0l40.5 40.5c1.6 1.6 4.1 1.6 5.7 0l11.3-11.3c.6-.6 1-1.3 1.1-2.1.3-1.3-.1-2.7-1.1-3.6l-40.5-40.4c-.8-.8-.8-2.1 0-2.8l40.5-40.5c1.6-1.6 1.6-4.1 0-5.7l-11.3-11.4c-.6-.6-1.3-1-2.1-1.1-1.3-.3-2.7.1-3.6 1.1l-40.5 40.5c-.8.8-2.1.8-2.8 0l-40.5-40.5c-1.6-1.6-4.1-1.6-5.7 0l-11.3 11.3c-.6.6-1 1.3-1.1 2.1-.3 1.3.1 2.7 1.1 3.6l40.5 40.5c.8.8.8 2.1 0 2.8l-40.5 40.5c-1.6 1.6-1.6 4.1 0 5.7l11.3 11.3c.6.6 1.3 1 2.1 1.1 1.3.3 2.7-.1 3.6-1.1z" fill="url(#a)"/></svg>